<svg xmlns="http://www.w3.org/2000/svg" xmlns:xlink="http://www.w3.org/1999/xlink" width="140" height="140" viewBox="0 0 140 140" fill="none"><path d="M76.8536 23.5306L76.8542 7L69.5493 7.9113C43.3088 11.1849 23.4077 33.5704 23.4077 60.2451L23.4109 60.831C23.4215 61.8067 23.4587 62.7792 23.5223 63.7475L23.5296 63.8531L7 63.8529L7.9113 71.1576C11.185 97.397 33.5713 117.298 60.2468 117.298L60.8336 117.295C61.811 117.284 62.785 117.247 63.7549 117.183L63.8709 117.174L63.8708 133.705L71.1757 132.794C97.416 129.52 117.317 107.135 117.317 80.4599L117.314 79.874C117.303 78.8983 117.266 77.9258 117.203 76.9575L117.195 76.8514L133.725 76.8521L132.814 69.5474C129.54 43.3078 107.154 23.4072 80.4782 23.4072L79.8914 23.4104C78.914 23.4211 77.94 23.4585 76.9701 23.5222L76.8536 23.5306Z"   fill="#FFFFFF" ></path><path d="M63.719 22.473L63.8539 22.43L63.8538 39.125L71.7703 37.357C74.604 36.725 77.5179 36.402 80.4782 36.402L81.0802 36.407C98.309 36.664 113.068 47.938 118.246 63.713L118.289 63.847L101.601 63.847L103.365 71.761C103.996 74.591 104.317 77.5 104.317 80.455L104.313 81.057C104.055 98.286 92.781 113.044 77.0061 118.222L76.8706 118.265L76.8712 101.571L68.9547 103.338C66.121 103.971 63.2071 104.293 60.2468 104.293L59.6448 104.289C42.4159 104.032 27.6568 92.758 22.4785 76.983L22.4351 76.848L39.1239 76.848L37.3599 68.934C36.7293 66.105 36.4079 63.196 36.4079 60.241C36.4079 42.755 47.7606 27.712 63.719 22.473Z"   fill="#FFCC00" ></path></svg>